<mxfile host="app.diagrams.net" modified="2023-01-28T06:32:57.837Z" agent="5.0 (Macintosh; Intel Mac OS X 10_15_7) AppleWebKit/537.36 (KHTML, like Gecko) Chrome/109.0.0.0 Safari/537.36" etag="qugoJqr8_tbJ69UEDGmA" version="20.8.11" type="github">
  <diagram name="페이지-1" id="mD7nJ4Qw-M15_zDBKJXy">
    <mxGraphModel dx="1207" dy="702" grid="1" gridSize="10" guides="1" tooltips="1" connect="1" arrows="1" fold="1" page="1" pageScale="1" pageWidth="827" pageHeight="1169" math="0" shadow="0">
      <root>
        <mxCell id="0" />
        <mxCell id="1" parent="0" />
        <mxCell id="SsaM1hiblEYOGy6Opi5v-1" value="이용자" style="shape=umlActor;verticalLabelPosition=bottom;verticalAlign=top;html=1;outlineConnect=0;" vertex="1" parent="1">
          <mxGeometry x="60" y="350" width="30" height="60" as="geometry" />
        </mxCell>
        <mxCell id="SsaM1hiblEYOGy6Opi5v-2" value="게시판 서비스" style="shape=umlFrame;whiteSpace=wrap;html=1;width=90;height=20;" vertex="1" parent="1">
          <mxGeometry x="120" y="240" width="600" height="560" as="geometry" />
        </mxCell>
        <mxCell id="SsaM1hiblEYOGy6Opi5v-16" style="rounded=0;orthogonalLoop=1;jettySize=auto;html=1;entryX=1;entryY=0.3333333333333333;entryDx=0;entryDy=0;entryPerimeter=0;endArrow=none;endFill=0;" edge="1" parent="1" source="SsaM1hiblEYOGy6Opi5v-3" target="SsaM1hiblEYOGy6Opi5v-1">
          <mxGeometry relative="1" as="geometry" />
        </mxCell>
        <mxCell id="SsaM1hiblEYOGy6Opi5v-3" value="회원가입" style="rounded=1;whiteSpace=wrap;html=1;arcSize=40;fontColor=#000000;fillColor=#ffffc0;strokeColor=#ff0000;" vertex="1" parent="1">
          <mxGeometry x="160" y="360" width="120" height="40" as="geometry" />
        </mxCell>
        <mxCell id="SsaM1hiblEYOGy6Opi5v-17" style="edgeStyle=none;rounded=0;orthogonalLoop=1;jettySize=auto;html=1;entryX=1;entryY=0.3333333333333333;entryDx=0;entryDy=0;entryPerimeter=0;endArrow=none;endFill=0;" edge="1" parent="1" source="SsaM1hiblEYOGy6Opi5v-5" target="SsaM1hiblEYOGy6Opi5v-1">
          <mxGeometry relative="1" as="geometry" />
        </mxCell>
        <mxCell id="SsaM1hiblEYOGy6Opi5v-26" style="edgeStyle=none;rounded=0;orthogonalLoop=1;jettySize=auto;html=1;exitX=1;exitY=0;exitDx=0;exitDy=0;entryX=0.5;entryY=1;entryDx=0;entryDy=0;dashed=1;startArrow=none;startFill=0;endArrow=classic;endFill=1;" edge="1" parent="1" source="SsaM1hiblEYOGy6Opi5v-5" target="SsaM1hiblEYOGy6Opi5v-7">
          <mxGeometry relative="1" as="geometry" />
        </mxCell>
        <mxCell id="SsaM1hiblEYOGy6Opi5v-5" value="게시판 보기" style="rounded=1;whiteSpace=wrap;html=1;arcSize=40;fontColor=#000000;fillColor=#ffffc0;strokeColor=#ff0000;" vertex="1" parent="1">
          <mxGeometry x="160" y="440" width="120" height="40" as="geometry" />
        </mxCell>
        <mxCell id="SsaM1hiblEYOGy6Opi5v-19" style="edgeStyle=none;rounded=0;orthogonalLoop=1;jettySize=auto;html=1;entryX=1;entryY=0.3333333333333333;entryDx=0;entryDy=0;entryPerimeter=0;endArrow=none;endFill=0;" edge="1" parent="1" source="SsaM1hiblEYOGy6Opi5v-6" target="SsaM1hiblEYOGy6Opi5v-1">
          <mxGeometry relative="1" as="geometry" />
        </mxCell>
        <mxCell id="SsaM1hiblEYOGy6Opi5v-28" style="edgeStyle=none;rounded=0;orthogonalLoop=1;jettySize=auto;html=1;exitX=1;exitY=0;exitDx=0;exitDy=0;entryX=0.5;entryY=1;entryDx=0;entryDy=0;dashed=1;startArrow=none;startFill=0;endArrow=classic;endFill=1;" edge="1" parent="1" source="SsaM1hiblEYOGy6Opi5v-6" target="SsaM1hiblEYOGy6Opi5v-7">
          <mxGeometry relative="1" as="geometry" />
        </mxCell>
        <mxCell id="SsaM1hiblEYOGy6Opi5v-6" value="&amp;nbsp;게시글 보기" style="rounded=1;whiteSpace=wrap;html=1;arcSize=40;fontColor=#000000;fillColor=#ffffc0;strokeColor=#ff0000;" vertex="1" parent="1">
          <mxGeometry x="160" y="600" width="120" height="40" as="geometry" />
        </mxCell>
        <mxCell id="SsaM1hiblEYOGy6Opi5v-20" style="edgeStyle=none;rounded=0;orthogonalLoop=1;jettySize=auto;html=1;endArrow=none;endFill=0;" edge="1" parent="1" source="SsaM1hiblEYOGy6Opi5v-7">
          <mxGeometry relative="1" as="geometry">
            <mxPoint x="90" y="370" as="targetPoint" />
          </mxGeometry>
        </mxCell>
        <mxCell id="SsaM1hiblEYOGy6Opi5v-21" value="&amp;lt;&amp;lt;include&amp;gt;&amp;gt;" style="edgeStyle=none;rounded=0;orthogonalLoop=1;jettySize=auto;html=1;endArrow=classic;endFill=1;dashed=1;" edge="1" parent="1" source="SsaM1hiblEYOGy6Opi5v-7" target="SsaM1hiblEYOGy6Opi5v-8">
          <mxGeometry relative="1" as="geometry" />
        </mxCell>
        <mxCell id="SsaM1hiblEYOGy6Opi5v-7" value="로그인" style="rounded=1;whiteSpace=wrap;html=1;arcSize=40;fontColor=#000000;fillColor=#ffffc0;strokeColor=#ff0000;" vertex="1" parent="1">
          <mxGeometry x="320" y="280" width="120" height="40" as="geometry" />
        </mxCell>
        <mxCell id="SsaM1hiblEYOGy6Opi5v-8" value="인증" style="rounded=1;whiteSpace=wrap;html=1;arcSize=40;fontColor=#000000;fillColor=#ffffc0;strokeColor=#ff0000;" vertex="1" parent="1">
          <mxGeometry x="560" y="280" width="120" height="40" as="geometry" />
        </mxCell>
        <mxCell id="SsaM1hiblEYOGy6Opi5v-25" value="&amp;lt;&amp;lt;extend&amp;gt;&amp;gt;" style="edgeStyle=none;rounded=0;orthogonalLoop=1;jettySize=auto;html=1;entryX=1;entryY=0.5;entryDx=0;entryDy=0;endArrow=classic;endFill=1;dashed=1;" edge="1" parent="1" source="SsaM1hiblEYOGy6Opi5v-10" target="SsaM1hiblEYOGy6Opi5v-7">
          <mxGeometry relative="1" as="geometry" />
        </mxCell>
        <mxCell id="SsaM1hiblEYOGy6Opi5v-10" value="로그인 실패" style="rounded=1;whiteSpace=wrap;html=1;arcSize=40;fontColor=#000000;fillColor=#ffffc0;strokeColor=#ff0000;" vertex="1" parent="1">
          <mxGeometry x="560" y="360" width="120" height="40" as="geometry" />
        </mxCell>
        <mxCell id="SsaM1hiblEYOGy6Opi5v-29" style="edgeStyle=none;rounded=0;orthogonalLoop=1;jettySize=auto;html=1;exitX=0;exitY=0.5;exitDx=0;exitDy=0;entryX=1;entryY=0.5;entryDx=0;entryDy=0;dashed=1;startArrow=none;startFill=0;endArrow=classic;endFill=1;" edge="1" parent="1" source="SsaM1hiblEYOGy6Opi5v-11" target="SsaM1hiblEYOGy6Opi5v-5">
          <mxGeometry relative="1" as="geometry" />
        </mxCell>
        <mxCell id="SsaM1hiblEYOGy6Opi5v-11" value="게시판 정렬하기" style="rounded=1;whiteSpace=wrap;html=1;arcSize=40;fontColor=#000000;fillColor=#ffffc0;strokeColor=#ff0000;" vertex="1" parent="1">
          <mxGeometry x="400" y="440" width="120" height="40" as="geometry" />
        </mxCell>
        <mxCell id="SsaM1hiblEYOGy6Opi5v-31" style="edgeStyle=none;rounded=0;orthogonalLoop=1;jettySize=auto;html=1;exitX=0;exitY=0.5;exitDx=0;exitDy=0;entryX=1;entryY=0.5;entryDx=0;entryDy=0;dashed=1;startArrow=none;startFill=0;endArrow=classic;endFill=1;" edge="1" parent="1" source="SsaM1hiblEYOGy6Opi5v-12" target="SsaM1hiblEYOGy6Opi5v-5">
          <mxGeometry relative="1" as="geometry" />
        </mxCell>
        <mxCell id="SsaM1hiblEYOGy6Opi5v-12" value="게시판 검색" style="rounded=1;whiteSpace=wrap;html=1;arcSize=40;fontColor=#000000;fillColor=#ffffc0;strokeColor=#ff0000;" vertex="1" parent="1">
          <mxGeometry x="400" y="520" width="120" height="40" as="geometry" />
        </mxCell>
        <mxCell id="SsaM1hiblEYOGy6Opi5v-32" style="edgeStyle=none;rounded=0;orthogonalLoop=1;jettySize=auto;html=1;exitX=0;exitY=0.5;exitDx=0;exitDy=0;entryX=1;entryY=0.5;entryDx=0;entryDy=0;dashed=1;startArrow=none;startFill=0;endArrow=classic;endFill=1;" edge="1" parent="1" source="SsaM1hiblEYOGy6Opi5v-13" target="SsaM1hiblEYOGy6Opi5v-6">
          <mxGeometry relative="1" as="geometry" />
        </mxCell>
        <mxCell id="SsaM1hiblEYOGy6Opi5v-13" value="게시글 쓰기, 수정, 삭제" style="rounded=1;whiteSpace=wrap;html=1;arcSize=40;fontColor=#000000;fillColor=#ffffc0;strokeColor=#ff0000;" vertex="1" parent="1">
          <mxGeometry x="400" y="600" width="120" height="40" as="geometry" />
        </mxCell>
        <mxCell id="SsaM1hiblEYOGy6Opi5v-34" style="edgeStyle=none;rounded=0;orthogonalLoop=1;jettySize=auto;html=1;exitX=0;exitY=0.5;exitDx=0;exitDy=0;entryX=1;entryY=0.5;entryDx=0;entryDy=0;dashed=1;startArrow=none;startFill=0;endArrow=classic;endFill=1;" edge="1" parent="1" source="SsaM1hiblEYOGy6Opi5v-14" target="SsaM1hiblEYOGy6Opi5v-6">
          <mxGeometry relative="1" as="geometry" />
        </mxCell>
        <mxCell id="SsaM1hiblEYOGy6Opi5v-14" value="댓글 보기, 쓰기, &lt;br&gt;수정, 삭제" style="rounded=1;whiteSpace=wrap;html=1;arcSize=40;fontColor=#000000;fillColor=#ffffc0;strokeColor=#ff0000;" vertex="1" parent="1">
          <mxGeometry x="400" y="680" width="120" height="40" as="geometry" />
        </mxCell>
      </root>
    </mxGraphModel>
  </diagram>
</mxfile>
